<svg width="19" height="19" viewBox="0 0 19 19" fill="none" xmlns="http://www.w3.org/2000/svg">
<path d="M12.5947 9.5973L19.0001 13.6467V5.37692L12.5947 9.5973Z" fill="black"/>
<path d="M12.5947 9.5973L19.0001 13.6467V5.37692L12.5947 9.5973Z" fill="url(#paint0_linear_1065_1933)"/>
<path d="M0 5.37692V13.6467L6.40538 9.5973L0 5.37692Z" fill="black"/>
<path d="M0 5.37692V13.6467L6.40538 9.5973L0 5.37692Z" fill="url(#paint1_linear_1065_1933)"/>
<path d="M17.8125 2.96875H1.18752C0.594957 2.96875 0.124707 3.4105 0.0356445 3.97931L9.50002 10.2149L18.9644 3.97931C18.8753 3.4105 18.4051 2.96875 17.8125 2.96875Z" fill="black"/>
<path d="M17.8125 2.96875H1.18752C0.594957 2.96875 0.124707 3.4105 0.0356445 3.97931L9.50002 10.2149L18.9644 3.97931C18.8753 3.4105 18.4051 2.96875 17.8125 2.96875Z" fill="url(#paint2_linear_1065_1933)"/>
<path d="M11.507 10.3147L9.82665 11.4215C9.7269 11.4868 9.61409 11.5188 9.50008 11.5188C9.38608 11.5188 9.27327 11.4868 9.17352 11.4215L7.49321 10.3135L0.0380859 15.0291C0.129523 15.5932 0.597398 16.0313 1.18759 16.0313H17.8126C18.4028 16.0313 18.8706 15.5932 18.9621 15.0291L11.507 10.3147Z" fill="black"/>
<path d="M11.507 10.3147L9.82665 11.4215C9.7269 11.4868 9.61409 11.5188 9.50008 11.5188C9.38608 11.5188 9.27327 11.4868 9.17352 11.4215L7.49321 10.3135L0.0380859 15.0291C0.129523 15.5932 0.597398 16.0313 1.18759 16.0313H17.8126C18.4028 16.0313 18.8706 15.5932 18.9621 15.0291L11.507 10.3147Z" fill="url(#paint3_linear_1065_1933)"/>
<defs>
<linearGradient id="paint0_linear_1065_1933" x1="19.1908" y1="13.6465" x2="10.6276" y2="12.4221" gradientUnits="userSpaceOnUse">
<stop stop-color="#4614E8"/>
<stop offset="1" stop-color="#BCA7FF"/>
</linearGradient>
<linearGradient id="paint1_linear_1065_1933" x1="6.59609" y1="13.6465" x2="-1.9671" y2="12.4221" gradientUnits="userSpaceOnUse">
<stop stop-color="#4614E8"/>
<stop offset="1" stop-color="#BCA7FF"/>
</linearGradient>
<linearGradient id="paint2_linear_1065_1933" x1="19.528" y1="10.2147" x2="-1.42301" y2="0.111862" gradientUnits="userSpaceOnUse">
<stop stop-color="#4614E8"/>
<stop offset="1" stop-color="#BCA7FF"/>
</linearGradient>
<linearGradient id="paint3_linear_1065_1933" x1="19.5255" y1="16.0312" x2="0.726306" y2="4.54582" gradientUnits="userSpaceOnUse">
<stop stop-color="#4614E8"/>
<stop offset="1" stop-color="#BCA7FF"/>
</linearGradient>
</defs>
</svg>
