<svg width="199" height="63" viewBox="0 0 199 63" fill="none" xmlns="http://www.w3.org/2000/svg">
<path d="M31.2114 58H47.5918V63H26.2308V0H31.2114V58Z" fill="#3B1D8F"/>
<path d="M4.98053 0H0V63H4.98053V0Z" fill="#3B1D8F"/>
<path d="M56.4461 31.5556C56.4461 46.1111 68.2887 58 82.7876 58V63C65.411 63 51.3549 48.8889 51.3549 31.5556C51.4655 14.1111 65.5217 0 82.8982 0V5C68.2887 5 56.4461 16.8889 56.4461 31.5556Z" fill="#3B1D8F"/>
<path d="M86.4399 31.4444C86.4399 33.4444 84.8904 35 82.8982 35C80.906 35 79.3565 33.4444 79.3565 31.4444C79.3565 29.4444 80.906 27.8889 82.8982 27.8889C84.7798 27.8889 86.4399 29.5556 86.4399 31.4444Z" fill="#3B1D8F"/>
<path d="M111.609 28H110.648V16.625H111.609V28ZM115.375 19.5469L115.406 20.9922C115.724 20.4714 116.12 20.0755 116.594 19.8047C117.068 19.5286 117.591 19.3906 118.164 19.3906C119.07 19.3906 119.745 19.6458 120.188 20.1562C120.63 20.6667 120.854 21.4323 120.859 22.4531V28H119.93V22.4453C119.924 21.6901 119.763 21.1276 119.445 20.7578C119.133 20.388 118.63 20.2031 117.938 20.2031C117.359 20.2031 116.846 20.3854 116.398 20.75C115.956 21.1094 115.628 21.5964 115.414 22.2109V28H114.484V19.5469H115.375ZM124.734 17.3828V19.5469H126.484V20.3125H124.734V25.9453C124.734 26.4141 124.818 26.763 124.984 26.9922C125.156 27.2214 125.44 27.3359 125.836 27.3359C125.992 27.3359 126.245 27.3099 126.594 27.2578L126.633 28.0234C126.388 28.112 126.055 28.1562 125.633 28.1562C124.992 28.1562 124.526 27.9714 124.234 27.6016C123.943 27.2266 123.797 26.6771 123.797 25.9531V20.3125H122.242V19.5469H123.797V17.3828H124.734ZM131.695 28.1562C130.977 28.1562 130.326 27.9792 129.742 27.625C129.164 27.2708 128.714 26.7786 128.391 26.1484C128.068 25.513 127.906 24.8021 127.906 24.0156V23.6797C127.906 22.8672 128.062 22.1354 128.375 21.4844C128.693 20.8333 129.133 20.3229 129.695 19.9531C130.258 19.5781 130.867 19.3906 131.523 19.3906C132.549 19.3906 133.362 19.7422 133.961 20.4453C134.565 21.1432 134.867 22.099 134.867 23.3125V23.8359H128.836V24.0156C128.836 24.974 129.109 25.7734 129.656 26.4141C130.208 27.0495 130.901 27.3672 131.734 27.3672C132.234 27.3672 132.674 27.276 133.055 27.0938C133.44 26.9115 133.789 26.6198 134.102 26.2188L134.688 26.6641C134 27.6589 133.003 28.1562 131.695 28.1562ZM131.523 20.1875C130.82 20.1875 130.227 20.4453 129.742 20.9609C129.263 21.4766 128.971 22.1693 128.867 23.0391H133.938V22.9375C133.911 22.125 133.68 21.4635 133.242 20.9531C132.805 20.4427 132.232 20.1875 131.523 20.1875ZM140.594 20.3438C140.396 20.3073 140.185 20.2891 139.961 20.2891C139.378 20.2891 138.883 20.4531 138.477 20.7812C138.076 21.1042 137.789 21.5755 137.617 22.1953V28H136.688V19.5469H137.602L137.617 20.8906C138.112 19.8906 138.906 19.3906 140 19.3906C140.26 19.3906 140.466 19.4245 140.617 19.4922L140.594 20.3438ZM142.969 19.5469L143 20.9922C143.318 20.4714 143.714 20.0755 144.188 19.8047C144.661 19.5286 145.185 19.3906 145.758 19.3906C146.664 19.3906 147.339 19.6458 147.781 20.1562C148.224 20.6667 148.448 21.4323 148.453 22.4531V28H147.523V22.4453C147.518 21.6901 147.357 21.1276 147.039 20.7578C146.727 20.388 146.224 20.2031 145.531 20.2031C144.953 20.2031 144.44 20.3854 143.992 20.75C143.549 21.1094 143.221 21.5964 143.008 22.2109V28H142.078V19.5469H142.969ZM156.211 28C156.117 27.7344 156.057 27.3411 156.031 26.8203C155.703 27.2474 155.284 27.5781 154.773 27.8125C154.268 28.0417 153.732 28.1562 153.164 28.1562C152.352 28.1562 151.693 27.9297 151.188 27.4766C150.688 27.0234 150.438 26.4505 150.438 25.7578C150.438 24.9349 150.779 24.2839 151.461 23.8047C152.148 23.3255 153.104 23.0859 154.328 23.0859H156.023V22.125C156.023 21.5208 155.836 21.0469 155.461 20.7031C155.091 20.3542 154.549 20.1797 153.836 20.1797C153.185 20.1797 152.646 20.3464 152.219 20.6797C151.792 21.013 151.578 21.4141 151.578 21.8828L150.641 21.875C150.641 21.2031 150.953 20.6224 151.578 20.1328C152.203 19.638 152.971 19.3906 153.883 19.3906C154.826 19.3906 155.568 19.6276 156.109 20.1016C156.656 20.5703 156.938 21.2266 156.953 22.0703V26.0703C156.953 26.888 157.039 27.5 157.211 27.9062V28H156.211ZM153.273 27.3281C153.898 27.3281 154.456 27.1771 154.945 26.875C155.44 26.5729 155.799 26.1693 156.023 25.6641V23.8047H154.352C153.419 23.8151 152.69 23.987 152.164 24.3203C151.638 24.6484 151.375 25.1016 151.375 25.6797C151.375 26.1536 151.549 26.5469 151.898 26.8594C152.253 27.1719 152.711 27.3281 153.273 27.3281ZM160.906 17.3828V19.5469H162.656V20.3125H160.906V25.9453C160.906 26.4141 160.99 26.763 161.156 26.9922C161.328 27.2214 161.612 27.3359 162.008 27.3359C162.164 27.3359 162.417 27.3099 162.766 27.2578L162.805 28.0234C162.56 28.112 162.227 28.1562 161.805 28.1562C161.164 28.1562 160.698 27.9714 160.406 27.6016C160.115 27.2266 159.969 26.6771 159.969 25.9531V20.3125H158.414V19.5469H159.969V17.3828H160.906ZM165.641 28H164.703V19.5469H165.641V28ZM164.539 17.1016C164.539 16.9245 164.596 16.776 164.711 16.6562C164.826 16.5312 164.982 16.4688 165.18 16.4688C165.378 16.4688 165.534 16.5312 165.648 16.6562C165.768 16.776 165.828 16.9245 165.828 17.1016C165.828 17.2786 165.768 17.4271 165.648 17.5469C165.534 17.6667 165.378 17.7266 165.18 17.7266C164.982 17.7266 164.826 17.6667 164.711 17.5469C164.596 17.4271 164.539 17.2786 164.539 17.1016ZM167.672 23.6484C167.672 22.8359 167.828 22.1042 168.141 21.4531C168.458 20.8021 168.904 20.2969 169.477 19.9375C170.055 19.5729 170.708 19.3906 171.438 19.3906C172.562 19.3906 173.474 19.7865 174.172 20.5781C174.87 21.3646 175.219 22.4089 175.219 23.7109V23.9062C175.219 24.724 175.06 25.4609 174.742 26.1172C174.43 26.7682 173.987 27.2708 173.414 27.625C172.841 27.9792 172.188 28.1562 171.453 28.1562C170.333 28.1562 169.422 27.763 168.719 26.9766C168.021 26.1849 167.672 25.138 167.672 23.8359V23.6484ZM168.609 23.9062C168.609 24.9167 168.87 25.7474 169.391 26.3984C169.917 27.0443 170.604 27.3672 171.453 27.3672C172.297 27.3672 172.979 27.0443 173.5 26.3984C174.026 25.7474 174.289 24.8906 174.289 23.8281V23.6484C174.289 23.0026 174.169 22.4115 173.93 21.875C173.69 21.3385 173.354 20.9245 172.922 20.6328C172.49 20.3359 171.995 20.1875 171.438 20.1875C170.604 20.1875 169.924 20.5156 169.398 21.1719C168.872 21.8229 168.609 22.6771 168.609 23.7344V23.9062ZM178.047 19.5469L178.078 20.9922C178.396 20.4714 178.792 20.0755 179.266 19.8047C179.74 19.5286 180.263 19.3906 180.836 19.3906C181.742 19.3906 182.417 19.6458 182.859 20.1562C183.302 20.6667 183.526 21.4323 183.531 22.4531V28H182.602V22.4453C182.596 21.6901 182.435 21.1276 182.117 20.7578C181.805 20.388 181.302 20.2031 180.609 20.2031C180.031 20.2031 179.518 20.3854 179.07 20.75C178.628 21.1094 178.299 21.5964 178.086 22.2109V28H177.156V19.5469H178.047ZM191.289 28C191.195 27.7344 191.135 27.3411 191.109 26.8203C190.781 27.2474 190.362 27.5781 189.852 27.8125C189.346 28.0417 188.81 28.1562 188.242 28.1562C187.43 28.1562 186.771 27.9297 186.266 27.4766C185.766 27.0234 185.516 26.4505 185.516 25.7578C185.516 24.9349 185.857 24.2839 186.539 23.8047C187.227 23.3255 188.182 23.0859 189.406 23.0859H191.102V22.125C191.102 21.5208 190.914 21.0469 190.539 20.7031C190.169 20.3542 189.628 20.1797 188.914 20.1797C188.263 20.1797 187.724 20.3464 187.297 20.6797C186.87 21.013 186.656 21.4141 186.656 21.8828L185.719 21.875C185.719 21.2031 186.031 20.6224 186.656 20.1328C187.281 19.638 188.049 19.3906 188.961 19.3906C189.904 19.3906 190.646 19.6276 191.188 20.1016C191.734 20.5703 192.016 21.2266 192.031 22.0703V26.0703C192.031 26.888 192.117 27.5 192.289 27.9062V28H191.289ZM188.352 27.3281C188.977 27.3281 189.534 27.1771 190.023 26.875C190.518 26.5729 190.878 26.1693 191.102 25.6641V23.8047H189.43C188.497 23.8151 187.768 23.987 187.242 24.3203C186.716 24.6484 186.453 25.1016 186.453 25.6797C186.453 26.1536 186.628 26.5469 186.977 26.8594C187.331 27.1719 187.789 27.3281 188.352 27.3281ZM195.578 28H194.641V16H195.578V28ZM111.406 46.1875H117.023V47H110.438V35.625H111.406V46.1875ZM121.93 47.1562C121.211 47.1562 120.56 46.9792 119.977 46.625C119.398 46.2708 118.948 45.7786 118.625 45.1484C118.302 44.513 118.141 43.8021 118.141 43.0156V42.6797C118.141 41.8672 118.297 41.1354 118.609 40.4844C118.927 39.8333 119.367 39.3229 119.93 38.9531C120.492 38.5781 121.102 38.3906 121.758 38.3906C122.784 38.3906 123.596 38.7422 124.195 39.4453C124.799 40.1432 125.102 41.099 125.102 42.3125V42.8359H119.07V43.0156C119.07 43.974 119.344 44.7734 119.891 45.4141C120.443 46.0495 121.135 46.3672 121.969 46.3672C122.469 46.3672 122.909 46.276 123.289 46.0938C123.674 45.9115 124.023 45.6198 124.336 45.2188L124.922 45.6641C124.234 46.6589 123.237 47.1562 121.93 47.1562ZM121.758 39.1875C121.055 39.1875 120.461 39.4453 119.977 39.9609C119.497 40.4766 119.206 41.1693 119.102 42.0391H124.172V41.9375C124.146 41.125 123.914 40.4635 123.477 39.9531C123.039 39.4427 122.466 39.1875 121.758 39.1875ZM126.547 42.6953C126.547 41.3724 126.839 40.3255 127.422 39.5547C128.01 38.7786 128.807 38.3906 129.812 38.3906C130.964 38.3906 131.839 38.849 132.438 39.7656L132.484 38.5469H133.359V46.8281C133.359 47.9167 133.055 48.7786 132.445 49.4141C131.836 50.0495 131.01 50.3672 129.969 50.3672C129.38 50.3672 128.818 50.2344 128.281 49.9688C127.75 49.7083 127.331 49.3594 127.023 48.9219L127.547 48.3594C128.208 49.1719 128.995 49.5781 129.906 49.5781C130.688 49.5781 131.297 49.3464 131.734 48.8828C132.172 48.4245 132.398 47.7865 132.414 46.9688V45.9062C131.815 46.7396 130.943 47.1562 129.797 47.1562C128.818 47.1562 128.031 46.7656 127.438 45.9844C126.844 45.2031 126.547 44.1484 126.547 42.8203V42.6953ZM127.492 42.8594C127.492 43.9375 127.708 44.7891 128.141 45.4141C128.573 46.0339 129.182 46.3438 129.969 46.3438C131.12 46.3438 131.935 45.8281 132.414 44.7969V40.8672C132.195 40.3255 131.88 39.9141 131.469 39.6328C131.057 39.3464 130.562 39.2031 129.984 39.2031C129.198 39.2031 128.586 39.513 128.148 40.1328C127.711 40.7474 127.492 41.6562 127.492 42.8594ZM141.133 47C141.039 46.7344 140.979 46.3411 140.953 45.8203C140.625 46.2474 140.206 46.5781 139.695 46.8125C139.19 47.0417 138.654 47.1562 138.086 47.1562C137.273 47.1562 136.615 46.9297 136.109 46.4766C135.609 46.0234 135.359 45.4505 135.359 44.7578C135.359 43.9349 135.701 43.2839 136.383 42.8047C137.07 42.3255 138.026 42.0859 139.25 42.0859H140.945V41.125C140.945 40.5208 140.758 40.0469 140.383 39.7031C140.013 39.3542 139.471 39.1797 138.758 39.1797C138.107 39.1797 137.568 39.3464 137.141 39.6797C136.714 40.013 136.5 40.4141 136.5 40.8828L135.562 40.875C135.562 40.2031 135.875 39.6224 136.5 39.1328C137.125 38.638 137.893 38.3906 138.805 38.3906C139.747 38.3906 140.49 38.6276 141.031 39.1016C141.578 39.5703 141.859 40.2266 141.875 41.0703V45.0703C141.875 45.888 141.961 46.5 142.133 46.9062V47H141.133ZM138.195 46.3281C138.82 46.3281 139.378 46.1771 139.867 45.875C140.362 45.5729 140.721 45.1693 140.945 44.6641V42.8047H139.273C138.341 42.8151 137.612 42.987 137.086 43.3203C136.56 43.6484 136.297 44.1016 136.297 44.6797C136.297 45.1536 136.471 45.5469 136.82 45.8594C137.174 46.1719 137.633 46.3281 138.195 46.3281ZM145.422 47H144.484V35H145.422V47ZM160.133 43.4531C160.003 44.651 159.573 45.5677 158.844 46.2031C158.12 46.8385 157.154 47.1562 155.945 47.1562C155.102 47.1562 154.354 46.9453 153.703 46.5234C153.057 46.1016 152.557 45.5052 152.203 44.7344C151.849 43.9583 151.669 43.0729 151.664 42.0781V40.6016C151.664 39.5911 151.841 38.6953 152.195 37.9141C152.549 37.1328 153.057 36.5312 153.719 36.1094C154.385 35.6823 155.151 35.4688 156.016 35.4688C157.234 35.4688 158.195 35.7995 158.898 36.4609C159.607 37.1172 160.018 38.026 160.133 39.1875H159.164C158.924 37.2552 157.875 36.2891 156.016 36.2891C154.984 36.2891 154.161 36.6745 153.547 37.4453C152.938 38.2161 152.633 39.2812 152.633 40.6406V42.0312C152.633 43.3438 152.93 44.3906 153.523 45.1719C154.122 45.9531 154.93 46.3438 155.945 46.3438C156.951 46.3438 157.708 46.1042 158.219 45.625C158.729 45.1406 159.044 44.4167 159.164 43.4531H160.133ZM165.523 47.1562C164.805 47.1562 164.154 46.9792 163.57 46.625C162.992 46.2708 162.542 45.7786 162.219 45.1484C161.896 44.513 161.734 43.8021 161.734 43.0156V42.6797C161.734 41.8672 161.891 41.1354 162.203 40.4844C162.521 39.8333 162.961 39.3229 163.523 38.9531C164.086 38.5781 164.695 38.3906 165.352 38.3906C166.378 38.3906 167.19 38.7422 167.789 39.4453C168.393 40.1432 168.695 41.099 168.695 42.3125V42.8359H162.664V43.0156C162.664 43.974 162.938 44.7734 163.484 45.4141C164.036 46.0495 164.729 46.3672 165.562 46.3672C166.062 46.3672 166.503 46.276 166.883 46.0938C167.268 45.9115 167.617 45.6198 167.93 45.2188L168.516 45.6641C167.828 46.6589 166.831 47.1562 165.523 47.1562ZM165.352 39.1875C164.648 39.1875 164.055 39.4453 163.57 39.9609C163.091 40.4766 162.799 41.1693 162.695 42.0391H167.766V41.9375C167.74 41.125 167.508 40.4635 167.07 39.9531C166.633 39.4427 166.06 39.1875 165.352 39.1875ZM171.406 38.5469L171.438 39.9922C171.755 39.4714 172.151 39.0755 172.625 38.8047C173.099 38.5286 173.622 38.3906 174.195 38.3906C175.102 38.3906 175.776 38.6458 176.219 39.1562C176.661 39.6667 176.885 40.4323 176.891 41.4531V47H175.961V41.4453C175.956 40.6901 175.794 40.1276 175.477 39.7578C175.164 39.388 174.661 39.2031 173.969 39.2031C173.391 39.2031 172.878 39.3854 172.43 39.75C171.987 40.1094 171.659 40.5964 171.445 41.2109V47H170.516V38.5469H171.406ZM180.766 36.3828V38.5469H182.516V39.3125H180.766V44.9453C180.766 45.4141 180.849 45.763 181.016 45.9922C181.188 46.2214 181.471 46.3359 181.867 46.3359C182.023 46.3359 182.276 46.3099 182.625 46.2578L182.664 47.0234C182.419 47.112 182.086 47.1562 181.664 47.1562C181.023 47.1562 180.557 46.9714 180.266 46.6016C179.974 46.2266 179.828 45.6771 179.828 44.9531V39.3125H178.273V38.5469H179.828V36.3828H180.766ZM187.727 47.1562C187.008 47.1562 186.357 46.9792 185.773 46.625C185.195 46.2708 184.745 45.7786 184.422 45.1484C184.099 44.513 183.938 43.8021 183.938 43.0156V42.6797C183.938 41.8672 184.094 41.1354 184.406 40.4844C184.724 39.8333 185.164 39.3229 185.727 38.9531C186.289 38.5781 186.898 38.3906 187.555 38.3906C188.581 38.3906 189.393 38.7422 189.992 39.4453C190.596 40.1432 190.898 41.099 190.898 42.3125V42.8359H184.867V43.0156C184.867 43.974 185.141 44.7734 185.688 45.4141C186.24 46.0495 186.932 46.3672 187.766 46.3672C188.266 46.3672 188.706 46.276 189.086 46.0938C189.471 45.9115 189.82 45.6198 190.133 45.2188L190.719 45.6641C190.031 46.6589 189.034 47.1562 187.727 47.1562ZM187.555 39.1875C186.852 39.1875 186.258 39.4453 185.773 39.9609C185.294 40.4766 185.003 41.1693 184.898 42.0391H189.969V41.9375C189.943 41.125 189.711 40.4635 189.273 39.9531C188.836 39.4427 188.263 39.1875 187.555 39.1875ZM196.625 39.3438C196.427 39.3073 196.216 39.2891 195.992 39.2891C195.409 39.2891 194.914 39.4531 194.508 39.7812C194.107 40.1042 193.82 40.5755 193.648 41.1953V47H192.719V38.5469H193.633L193.648 39.8906C194.143 38.8906 194.938 38.3906 196.031 38.3906C196.292 38.3906 196.497 38.4245 196.648 38.4922L196.625 39.3438Z" fill="#3B1D8F"/>
</svg>
