<svg width="17" height="16" viewBox="0 0 17 16" fill="none" xmlns="http://www.w3.org/2000/svg">
<g clip-path="url(#clip0_1065_1926)">
<path d="M8.3788 7.70724C9.50381 7.70724 10.478 7.32749 11.274 6.57822C12.0699 5.82908 12.4734 4.91246 12.4734 3.8535C12.4734 2.79491 12.0699 1.87817 11.2738 1.12878C10.4777 0.379759 9.50368 0 8.3788 0C7.25365 0 6.27974 0.379759 5.48377 1.1289C4.68781 1.87804 4.28418 2.79479 4.28418 3.8535C4.28418 4.91246 4.68781 5.8292 5.4839 6.57834C6.28 7.32736 7.25404 7.70724 8.3788 7.70724Z" fill="url(#paint0_linear_1065_1926)"/>
<path d="M15.5433 12.3033C15.5204 11.9915 15.474 11.6514 15.4056 11.2923C15.3366 10.9305 15.2478 10.5885 15.1414 10.2758C15.0315 9.95272 14.8821 9.63363 14.6974 9.32784C14.5057 9.01046 14.2806 8.7341 14.0279 8.50668C13.7637 8.26877 13.4403 8.07748 13.0662 7.93796C12.6935 7.79916 12.2804 7.72885 11.8385 7.72885C11.6649 7.72885 11.4971 7.79587 11.173 7.99448C10.9735 8.11691 10.7402 8.25851 10.4797 8.41513C10.257 8.54867 9.95536 8.67379 9.58273 8.78707C9.21918 8.89779 8.85006 8.95394 8.48573 8.95394C8.12141 8.95394 7.75241 8.89779 7.38847 8.78707C7.01624 8.67392 6.71455 8.54879 6.49212 8.41525C6.23415 8.2601 6.00069 8.1185 5.79823 7.99435C5.47449 7.79575 5.30653 7.72873 5.133 7.72873C4.69098 7.72873 4.27802 7.79916 3.90539 7.93808C3.53159 8.07736 3.20799 8.26864 2.94353 8.5068C2.69101 8.73434 2.46572 9.01058 2.27428 9.32784C2.08972 9.63363 1.94031 9.9526 1.83032 10.276C1.7241 10.5886 1.63525 10.9305 1.56625 11.2923C1.4979 11.651 1.45147 11.9912 1.42851 12.3037C1.40594 12.6098 1.39453 12.9276 1.39453 13.2485C1.39453 14.0837 1.67663 14.7598 2.23291 15.2585C2.78232 15.7505 3.50928 16.0002 4.39332 16.0002H12.5789C13.463 16.0002 14.1897 15.7507 14.7392 15.2585C15.2956 14.7602 15.5777 14.0839 15.5777 13.2484C15.5776 12.926 15.566 12.608 15.5433 12.3033Z" fill="url(#paint1_linear_1065_1926)"/>
</g>
<defs>
<linearGradient id="paint0_linear_1065_1926" x1="13.5" y1="4" x2="-1.57716" y2="0.315776" gradientUnits="userSpaceOnUse">
<stop stop-color="#4614E8"/>
<stop offset="1" stop-color="#BCA7FF"/>
</linearGradient>
<linearGradient id="paint1_linear_1065_1926" x1="16" y1="16" x2="-1.58673" y2="10.4332" gradientUnits="userSpaceOnUse">
<stop stop-color="#4614E8"/>
<stop offset="1" stop-color="#BCA7FF"/>
</linearGradient>
<clipPath id="clip0_1065_1926">
<rect width="17" height="16" fill="white"/>
</clipPath>
</defs>
</svg>
