<svg width="145" height="145" viewBox="0 0 145 145" fill="none" xmlns="http://www.w3.org/2000/svg">
<path d="M0 72.4999C0 112.321 32.6788 145 72.5 145C112.321 145 145 112.321 145 72.4999C145 35.5941 116.931 4.82323 81.1215 0.515342C76.3852 -0.054436 72.5 3.86709 72.5 8.63756C72.5 13.408 76.392 17.2042 81.1046 17.9447C107.483 22.0894 127.725 44.9761 127.725 72.4999C127.725 102.95 102.95 127.724 72.5 127.724C42.05 127.724 17.2754 102.95 17.2754 72.4999C17.2754 61.9604 20.2434 52.1009 25.3875 43.7133C27.8902 39.6325 27.4868 34.1786 23.8038 31.1205C20.1862 28.1168 14.7768 28.5581 12.1656 32.4685C4.48848 43.9646 0 57.7417 0 72.4999Z" fill="url(#paint0_linear_2_32)"/>
<defs>
<linearGradient id="paint0_linear_2_32" x1="135" y1="25.9999" x2="-19.5" y2="53.4999" gradientUnits="userSpaceOnUse">
<stop stop-color="#4614E8"/>
<stop offset="1" stop-color="#BCA7FF"/>
</linearGradient>
</defs>
</svg>
