<svg width="10" height="18" viewBox="0 0 10 18" fill="none" xmlns="http://www.w3.org/2000/svg">
<path d="M8.57887 0H6.70395C5.26948 0 4.23914 0.340496 3.61296 1.02126C2.98658 1.70225 2.67367 2.70517 2.67367 4.03045V5.2937C2.67367 5.62755 2.4031 5.89812 2.06925 5.89812H1.42131C1.08747 5.89812 0.816895 6.16869 0.816895 6.50254V8.39556C0.816895 8.72941 1.08747 8.99998 1.42131 8.99998H2.06925C2.4031 8.99998 2.67367 9.27056 2.67367 9.6044V17.3955C2.67367 17.7294 2.94424 18 3.27809 18H5.79367C6.12752 18 6.39809 17.7294 6.39809 17.3955V9.60443C6.39809 9.27056 6.6687 9.00002 7.00251 9.00002H8.27297C8.60685 9.00002 8.90584 8.73086 8.9409 8.39902L9.14155 6.49912C9.17661 6.16711 8.93444 5.89812 8.60057 5.89812H7.00231C6.66847 5.89812 6.39789 5.62755 6.39789 5.2937V4.34717C6.39789 4.11426 6.40879 3.93396 6.43071 3.80642C6.45247 3.67909 6.50163 3.55356 6.5782 3.42965C6.65454 3.30597 6.77845 3.22034 6.94951 3.17297C7.12053 3.12563 7.34821 3.10186 7.63208 3.10186H8.57861C8.91245 3.10186 9.18299 2.83129 9.18299 2.49744V0.604419C9.18326 0.270573 8.91268 0 8.57887 0Z" fill="#273895"/>
</svg>
