<svg width="13" height="22" viewBox="0 0 13 22" fill="none" xmlns="http://www.w3.org/2000/svg">
<g clip-path="url(#clip0_55_1207)">
<path fill-rule="evenodd" clip-rule="evenodd" d="M0.180908 3.66665C0.180908 2.27444 1.30953 1.14582 2.70174 1.14582H10.0351C11.4273 1.14582 12.5559 2.27444 12.5559 3.66665V18.3333C12.5559 19.7256 11.4273 20.8542 10.0351 20.8542H2.70174C1.30953 20.8542 0.180908 19.7256 0.180908 18.3333V3.66665ZM2.70174 2.52082C2.06891 2.52082 1.55591 3.03382 1.55591 3.66665V18.3333C1.55591 18.9662 2.06891 19.4792 2.70174 19.4792H10.0351C10.6679 19.4792 11.1809 18.9662 11.1809 18.3333V3.66665C11.1809 3.03382 10.6679 2.52082 10.0351 2.52082H2.70174Z" fill="white"/>
<path fill-rule="evenodd" clip-rule="evenodd" d="M3.61841 1.14582C3.23872 1.14582 2.93091 1.45363 2.93091 1.83332V2.74999C2.93091 3.63595 3.64912 4.35415 4.53507 4.35415H8.20174C9.0877 4.35415 9.80591 3.63595 9.80591 2.74999V1.83332C9.80591 1.45363 9.49809 1.14582 9.11841 1.14582H3.61841Z" fill="white"/>
</g>
<defs>
<clipPath id="clip0_55_1207">
<rect width="12.7368" height="22" fill="white"/>
</clipPath>
</defs>
</svg>
