<svg width="18" height="16" viewBox="0 0 18 16" fill="none" xmlns="http://www.w3.org/2000/svg">
<path d="M0.354714 13.696C2.02121 14.7535 3.96071 15.3123 5.96321 15.3123C8.89571 15.3123 11.583 14.1858 13.5307 12.1405C15.3945 10.183 16.4197 7.5528 16.3687 4.88355C17.0752 4.27905 17.9062 3.1248 17.9062 1.9998C17.9062 1.56855 17.4382 1.2948 17.0587 1.51455C16.395 1.90455 15.7897 2.00655 15.1672 1.8318C13.896 0.592797 12.0037 0.331797 10.4092 1.1913C9.01571 1.9413 8.24096 3.3138 8.31071 4.8138C5.95646 4.52655 3.78146 3.34605 2.26496 1.51155C2.01596 1.2123 1.54346 1.24755 1.34546 1.58655C0.614964 2.83755 0.622464 4.2873 1.25771 5.45805C0.955464 5.5113 0.768714 5.76555 0.768714 6.0408C0.768714 7.21755 1.29821 8.29905 2.15096 9.03705C1.99196 9.19005 1.93946 9.4173 2.00696 9.6198C2.38196 10.7463 3.23096 11.6268 4.29221 12.0678C3.13796 12.619 1.86146 12.8028 0.725214 12.6633C0.137214 12.5838 -0.153036 13.3743 0.354714 13.696ZM6.11696 12.2605C6.53771 11.9373 6.31421 11.2638 5.78621 11.2525C4.85621 11.233 4.00946 10.7748 3.48221 10.054C3.73646 10.0375 3.99971 9.99855 4.25021 9.93105C4.82096 9.77655 4.79396 8.95305 4.21421 8.8368C3.16196 8.6253 2.33621 7.8588 2.02646 6.8718C2.30921 6.94155 2.59721 6.98055 2.88446 6.9858C3.45371 6.9888 3.66896 6.25905 3.20471 5.9538C2.15846 5.26455 1.71221 4.0473 2.00771 2.9028C3.83471 4.7538 6.31346 5.86905 8.93546 5.99505C9.31121 6.0183 9.59321 5.66505 9.51071 5.3073C9.15446 3.76305 10.017 2.6808 10.9432 2.18205C11.8597 1.68705 13.3312 1.53255 14.4592 2.71605C14.7945 3.0693 15.9255 3.0828 16.5007 2.94855C16.2427 3.43455 15.846 3.8958 15.4747 4.1553C15.3165 4.2663 15.2257 4.4508 15.2355 4.64355C15.3562 7.1073 14.4382 9.5568 12.717 11.3635C10.983 13.1838 8.58521 14.1865 5.96396 14.1865C4.92146 14.1865 3.89921 14.017 2.93321 13.69C4.08821 13.4665 5.18546 12.9775 6.11696 12.2605Z" fill="#273895"/>
<path d="M6.11696 12.2605C6.53771 11.9373 6.31421 11.2638 5.78621 11.2525C4.85621 11.233 4.00946 10.7748 3.48221 10.054C3.73646 10.0375 3.99971 9.99855 4.25021 9.93105C4.82096 9.77655 4.79396 8.95305 4.21421 8.8368C3.16196 8.6253 2.33621 7.8588 2.02646 6.8718C2.30921 6.94155 2.59721 6.98055 2.88446 6.9858C3.45371 6.9888 3.66896 6.25905 3.20471 5.9538C2.15846 5.26455 1.71221 4.0473 2.00771 2.9028C3.83471 4.7538 6.31346 5.86905 8.93546 5.99505C9.31121 6.0183 9.59321 5.66505 9.51071 5.3073C9.15446 3.76305 10.017 2.6808 10.9432 2.18205C11.8597 1.68705 13.3312 1.53255 14.4592 2.71605C14.7945 3.0693 15.9255 3.0828 16.5007 2.94855C16.2427 3.43455 15.846 3.8958 15.4747 4.1553C15.3165 4.2663 15.2257 4.4508 15.2355 4.64355C15.3562 7.1073 14.4382 9.5568 12.717 11.3635C10.983 13.1838 8.58521 14.1865 5.96396 14.1865C4.92146 14.1865 3.89921 14.017 2.93321 13.69C4.08821 13.4665 5.18546 12.9775 6.11696 12.2605Z" fill="#273895"/>
</svg>
